<?xml version="1.0" standalone="no"?>
<!DOCTYPE svg PUBLIC "-//W3C//DTD SVG 20010904//EN"
 "http://www.w3.org/TR/2001/REC-SVG-20010904/DTD/svg10.dtd">
<svg version="1.0" xmlns="http://www.w3.org/2000/svg"
 width="512.000000pt" height="512.000000pt" viewBox="0 0 512.000000 512.000000"
 preserveAspectRatio="xMidYMid meet">
<metadata>
Created by potrace 1.14, written by Peter Selinger 2001-2017
</metadata>
<g transform="translate(0.000000,512.000000) scale(0.100000,-0.100000)"
fill="#000000" stroke="none">
<path d="M4284 5100 c-51 -10 -2188 -663 -2264 -691 -195 -72 -349 -237 -424
-454 -20 -59 -20 -79 -24 -1253 -3 -1123 -4 -1193 -20 -1187 -84 33 -175 48
-307 48 -210 0 -372 -37 -556 -127 -122 -61 -192 -109 -288 -201 -185 -177
-274 -363 -274 -575 0 -233 116 -412 340 -524 269 -135 670 -119 983 39 208
106 391 297 465 486 56 141 55 122 55 1236 0 677 4 1041 10 1065 15 54 67 117
131 160 47 32 198 82 1049 349 691 216 1009 312 1042 312 53 1 94 -22 115 -64
10 -18 13 -210 13 -831 l0 -808 -49 20 c-125 49 -380 65 -554 35 -352 -61
-668 -278 -802 -550 -60 -121 -78 -197 -78 -320 3 -296 192 -507 538 -600 85
-23 304 -31 418 -15 444 60 817 354 907 715 20 79 20 107 18 1780 -3 1343 -6
1708 -16 1737 -32 92 -123 182 -210 209 -50 15 -168 20 -218 9z"/>
</g>
</svg>
